<?xml version="1.0" encoding="UTF-8" standalone="no"?>
<!-- Created with Inkscape (http://www.inkscape.org/) -->

<svg
   width="500"
   height="500"
   viewBox="0 0 132.29166 132.29167"
   version="1.1"
   id="svg1"
   xml:space="preserve"
   inkscape:version="1.3 (0e150ed, 2023-07-21)"
   sodipodi:docname="LCCS LOGO.svg"
   inkscape:export-filename="LCCS LOGO.png"
   inkscape:export-xdpi="96"
   inkscape:export-ydpi="96"
   xmlns:inkscape="http://www.inkscape.org/namespaces/inkscape"
   xmlns:sodipodi="http://sodipodi.sourceforge.net/DTD/sodipodi-0.dtd"
   xmlns:xlink="http://www.w3.org/1999/xlink"
   xmlns="http://www.w3.org/2000/svg"
   xmlns:svg="http://www.w3.org/2000/svg"><sodipodi:namedview
     id="namedview1"
     pagecolor="#ffffff"
     bordercolor="#000000"
     borderopacity="0.25"
     inkscape:showpageshadow="2"
     inkscape:pageopacity="0.0"
     inkscape:pagecheckerboard="0"
     inkscape:deskcolor="#d1d1d1"
     inkscape:document-units="mm"
     inkscape:zoom="0.75459698"
     inkscape:cx="235.88751"
     inkscape:cy="280.94467"
     inkscape:window-width="1440"
     inkscape:window-height="789"
     inkscape:window-x="0"
     inkscape:window-y="25"
     inkscape:window-maximized="0"
     inkscape:current-layer="layer1" /><defs
     id="defs1"><linearGradient
       id="linearGradient44"
       inkscape:collect="always"><stop
         style="stop-color:#ffcc00;stop-opacity:1;"
         offset="0"
         id="stop44" /><stop
         style="stop-color:#d4aa00;stop-opacity:1"
         offset="1"
         id="stop45" /></linearGradient><linearGradient
       id="linearGradient39"
       inkscape:collect="always"><stop
         style="stop-color:#ffcc00;stop-opacity:1;"
         offset="0"
         id="stop39" /><stop
         style="stop-color:#d4aa00;stop-opacity:1"
         offset="1"
         id="stop40" /></linearGradient><linearGradient
       id="linearGradient16"
       inkscape:collect="always"><stop
         style="stop-color:#00d4aa;stop-opacity:1;"
         offset="0"
         id="stop16" /><stop
         style="stop-color:#00aa88;stop-opacity:1"
         offset="1"
         id="stop17" /></linearGradient><linearGradient
       id="linearGradient14"
       inkscape:collect="always"><stop
         style="stop-color:#00aa88;stop-opacity:1"
         offset="0"
         id="stop14" /><stop
         style="stop-color:#00d4aa;stop-opacity:1"
         offset="1"
         id="stop15" /></linearGradient><linearGradient
       inkscape:collect="always"
       xlink:href="#linearGradient14"
       id="linearGradient15"
       x1="101.58062"
       y1="137.94478"
       x2="83.313187"
       y2="104.3122"
       gradientUnits="userSpaceOnUse" /><linearGradient
       inkscape:collect="always"
       xlink:href="#linearGradient16"
       id="linearGradient17"
       x1="89.288513"
       y1="75.630615"
       x2="95.093124"
       y2="86.386215"
       gradientUnits="userSpaceOnUse" /><linearGradient
       inkscape:collect="always"
       xlink:href="#linearGradient39"
       id="linearGradient40"
       x1="129.51251"
       y1="102.35788"
       x2="112.59881"
       y2="139.6106"
       gradientUnits="userSpaceOnUse" /><linearGradient
       inkscape:collect="always"
       xlink:href="#linearGradient44"
       id="linearGradient45"
       x1="125.64605"
       y1="79.251488"
       x2="125.73486"
       y2="89.406212"
       gradientUnits="userSpaceOnUse" /></defs><g
     inkscape:label="Layer 1"
     inkscape:groupmode="layer"
     id="layer1"><path
       d="m 82.362835,93.918069 a 50.975992,45.347157 0 0 1 -4.858093,-2.360185 50.975992,45.347157 0 0 1 -5.822138,-3.877072 50.975992,45.347157 0 0 1 -2.567743,-2.284476 c -0.0088,9.1e-4 -0.02804,0.01263 -0.03587,0.01263 -0.06517,0 -0.178736,-0.04572 -0.331579,-0.129237 -0.152831,-0.08349 -0.345461,-0.205108 -0.567848,-0.357674 C 67.734802,84.616924 67.169,84.187837 66.554331,83.693664 65.939648,83.19949 65.276225,82.64013 64.636029,82.07299 63.99582,81.505849 63.379395,80.93132 62.858053,80.407288 62.0479,79.592966 61.277966,78.753042 60.548781,77.889145 c -0.729184,-0.863897 -1.4181,-1.751969 -2.065161,-2.663041 -0.647061,-0.91106 -1.2527,-1.844931 -1.81648,-2.800753 -0.563779,-0.955823 -1.085193,-1.933787 -1.564535,-2.93196 -0.479344,-0.998174 -0.916231,-2.016543 -1.309981,-3.054667 -0.393751,-1.038111 -0.744508,-2.095838 -1.05151,-3.171487 -0.307001,-1.075662 -0.570677,-2.169715 -0.789773,-3.280503 -0.219097,-1.110787 -0.394088,-2.238159 -0.524123,-3.381673 -0.06771,-0.595395 -0.108661,-1.424217 -0.125977,-2.369316 -0.01732,-0.9451 -0.01086,-2.006502 0.01632,-3.068371 0.02713,-1.06187 0.07537,-2.123979 0.140986,-3.069672 0.06562,-0.945705 0.148566,-1.775336 0.246721,-2.371931 0.09087,-0.553625 0.154121,-1.104826 0.186675,-1.609584 0.03255,-0.504745 0.03438,-0.96306 0.0027,-1.330207 -0.0384,-0.44341 -0.104506,-0.877563 -0.197117,-1.301496 -0.09261,-0.423927 -0.211494,-0.837452 -0.355724,-1.238183 -0.14423,-0.400729 -0.313895,-0.788649 -0.507153,-1.162469 C 50.641391,38.710013 50.424248,38.350066 50.184555,38.006868 49.944861,37.66367 49.682884,37.337325 49.399349,37.028462 49.115814,36.7196 48.810998,36.428566 48.486214,36.157753 48.16143,35.886939 47.816421,35.636194 47.452981,35.407142 47.089541,35.178088 46.707638,34.97065 46.308135,34.78707 c -0.52437,-0.24096 -1.026957,-0.436871 -1.516888,-0.58874 -0.489931,-0.151869 -0.967262,-0.25973 -1.441175,-0.325048 -0.473911,-0.06531 -0.944628,-0.08788 -1.42094,-0.06919 -0.476311,0.01869 -0.958402,0.07868 -1.455534,0.178843 -0.412681,0.08316 -0.810373,0.184159 -1.193145,0.303507 -0.382774,0.119347 -0.750625,0.256785 -1.103727,0.41251 -0.3531,0.155727 -0.69129,0.329878 -1.014956,0.522165 -0.323668,0.192288 -0.632374,0.402786 -0.926843,0.63182 -0.294468,0.229032 -0.574525,0.476815 -0.840032,0.742778 -0.265507,0.265964 -0.51644,0.550009 -0.753222,0.853086 -0.236784,0.303079 -0.459423,0.624976 -0.667718,0.965353 -0.208296,0.340376 -0.40217,0.699758 -0.582214,1.077617 -0.289779,0.608157 -0.562635,1.227091 -0.817188,1.856294 -0.254552,0.629203 -0.491137,1.268224 -0.710143,1.916996 -0.219007,0.648785 -0.419957,1.30756 -0.603101,1.974445 -0.183143,0.666872 -0.348441,1.34184 -0.495403,2.025346 -0.146962,0.683494 -0.27594,1.374983 -0.386402,2.073646 -0.110467,0.698651 -0.202451,1.405044 -0.276095,2.117373 -0.07364,0.71233 -0.128627,1.430696 -0.165134,2.15524 -0.0365,0.72453 -0.05446,1.4552 -0.05352,2.190479 0.0014,1.106354 0.02994,2.132315 0.09073,3.112098 0.06079,0.979783 0.153651,1.913224 0.283273,2.833391 0.129623,0.920179 0.296008,1.82755 0.503889,2.75508 0.207881,0.927518 0.45765,1.875295 0.753222,2.877118 0.293326,0.99422 0.623831,1.970391 0.990809,2.928045 0.366976,0.957641 0.770417,1.896867 1.207505,2.815114 0.437088,0.918259 0.908145,1.815716 1.411802,2.691763 0.503658,0.876048 1.039622,1.730182 1.606309,2.561214 0.566686,0.831032 1.164198,1.639 1.790371,2.422188 0.626175,0.7832 1.281218,1.542136 1.96334,2.274687 0.682121,0.732539 1.391335,1.438944 2.125863,2.11803 0.734527,0.679073 1.49455,1.33075 2.277942,1.953541 0.783393,0.622804 1.590211,1.216885 2.418928,1.78059 0.828717,0.563705 1.678968,1.09668 2.549468,1.598469 0.870502,0.501802 1.760824,0.972129 2.669568,1.409199 0.908742,0.437071 1.835775,0.841238 2.77922,1.21076 0.943445,0.369534 1.903827,0.704688 2.878433,1.003869 0.974604,0.299169 1.96367,0.562455 2.965895,0.788467 1.00222,0.226 2.017255,0.414563 3.043556,0.564589 1.026315,0.150014 2.063958,0.261012 3.110797,0.332223 0.884549,0.06025 1.777344,0.08892 2.678704,0.08551 0.901372,-0.0038 1.811156,-0.03878 2.730274,-0.105719 0.919106,-0.06694 1.847305,-0.165675 2.785091,-0.296327 0.937799,-0.130651 1.885134,-0.293169 2.842535,-0.487567 0.762031,-0.154725 1.67083,-0.387887 2.61017,-0.659887 0.473939,-0.137232 0.935601,-0.29802 1.4105,-0.449714 z"
       style="fill:url(#linearGradient15);fill-opacity:1;stroke-width:1"
       id="path14" /><path
       d="m 51.865158,6.3987134 c -0.357604,-0.00543 -0.713027,0.00392 -1.063258,0.028722 -0.350232,0.024769 -0.694833,0.06506 -1.030622,0.1207488 -0.33579,0.055701 -0.662823,0.1267648 -0.9771,0.2140879 -0.384267,0.1067667 -0.758932,0.2309725 -1.123308,0.3720414 -0.364376,0.1410689 -0.71817,0.2988356 -1.0613,0.4719068 -0.343128,0.1730712 -0.675503,0.3618157 -0.996028,0.5645903 -0.320525,0.2027746 -0.629628,0.4199153 -0.92619,0.6500946 -0.296562,0.2301805 -0.580538,0.4731319 -0.851781,0.7284196 -0.271242,0.2552877 -0.529544,0.5227742 -0.774108,0.8008702 -0.244566,0.278096 -0.475338,0.56688 -0.691869,0.865487 -0.216529,0.298608 -0.418573,0.60676 -0.605711,0.923579 -0.187138,0.316819 -0.35925,0.642409 -0.515637,0.975143 -0.156388,0.332733 -0.297368,0.673177 -0.421649,1.019526 -0.124285,0.34635 -0.232274,0.698411 -0.323089,1.056077 -0.09081,0.357668 -0.164622,0.720723 -0.220614,1.087409 -0.05599,0.366686 -0.09376,0.737499 -0.113574,1.110906 -0.01982,0.373406 -0.02165,0.749392 -0.0039,1.127222 0.01772,0.377829 0.05499,0.757059 0.111617,1.137013 0.05662,0.379955 0.132878,0.760497 0.229753,1.140277 0.135472,0.531106 0.304371,1.045394 0.505846,1.541039 0.201476,0.495644 0.435621,0.973024 0.701659,1.43073 0.266038,0.457708 0.563742,0.895301 0.892902,1.312591 0.329159,0.417292 0.689386,0.814178 1.080228,1.188578 0.516743,0.495007 1.037975,0.930756 1.569104,1.30998 0.265564,0.189614 0.533414,0.364999 0.804786,0.526734 0.271373,0.161735 0.546367,0.309271 0.82502,0.44384 0.278654,0.134569 0.561109,0.256095 0.848518,0.364209 0.287408,0.108119 0.579598,0.20286 0.877236,0.285233 0.297639,0.08238 0.600531,0.152176 0.909872,0.209519 0.309342,0.05734 0.625209,0.102738 0.947729,0.135763 0.393883,0.04033 0.784707,0.06098 1.171607,0.06332 0.386899,0.0023 0.770049,-0.01407 1.148109,-0.0483 0.37806,-0.03423 0.75072,-0.086 1.118085,-0.155344 0.367365,-0.06934 0.729329,-0.156116 1.084144,-0.259124 0.354815,-0.103003 0.702614,-0.222458 1.043024,-0.357683 0.340409,-0.135225 0.673186,-0.286331 0.997334,-0.452325 0.324149,-0.165993 0.639739,-0.347084 0.945772,-0.542399 0.306031,-0.195313 0.602924,-0.404715 0.888985,-0.627902 0.286059,-0.223188 0.561439,-0.459878 0.825671,-0.709492 0.264233,-0.249612 0.517242,-0.511918 0.757793,-0.78651 0.24055,-0.274591 0.468371,-0.561491 0.683382,-0.859614 0.215013,-0.298122 0.416787,-0.607942 0.604401,-0.928146 0.187628,-0.320206 0.361185,-0.65062 0.519561,-0.99146 0.158363,-0.340842 0.301556,-0.692135 0.428822,-1.052162 0.127266,-0.360028 0.23858,-0.729222 0.33288,-1.10699 0.09435,-0.377768 0.171575,-0.763838 0.231065,-1.1579 0.09031,-0.598577 0.128555,-1.200074 0.117465,-1.798856 -0.01137,-0.598784 -0.07098,-1.19497 -0.177536,-1.782541 -0.106492,-0.587571 -0.259032,-1.166694 -0.454946,-1.731629 -0.195914,-0.564937 -0.43539,-1.115896 -0.714717,-1.646778 C 61.741278,12.078335 61.42175,11.567944 61.065034,11.082538 60.708316,10.59713 60.314355,10.137104 59.886246,9.7085919 59.458139,9.2800802 58.996001,8.8828218 58.502511,8.5226253 58.009022,8.1624289 57.48431,7.8390406 56.931448,7.5585788 56.643035,7.4122694 56.33862,7.2793017 56.022229,7.1597756 55.705837,7.040252 55.377206,6.9346132 55.039906,6.8425612 54.702608,6.7505092 54.357158,6.672126 54.006021,6.608239 53.654884,6.5443533 53.298057,6.4944497 52.940153,6.4594225 52.582248,6.4243977 52.22275,6.4042014 51.865146,6.3987197 Z"
       style="fill:url(#linearGradient17);fill-opacity:1;stroke-width:1"
       id="path13" /><path
       d="m 90.841358,112.98549 c -0.35368,0 -0.696036,0.0101 -1.026706,0.0287 -0.330657,0.0192 -0.649871,0.0477 -0.957515,0.0861 -0.307644,0.0384 -0.603706,0.0867 -0.888337,0.14425 -0.284619,0.0576 -0.557541,0.12479 -0.819147,0.20168 -0.261593,0.0753 -0.50813,0.15874 -0.738854,0.25064 -0.230736,0.0919 -0.445671,0.19243 -0.645526,0.3009 -0.199867,0.1085 -0.384501,0.22482 -0.553499,0.34985 -0.168998,0.12504 -0.322687,0.25849 -0.460816,0.40011 -0.138116,0.14161 -0.25865,0.28814 -0.362246,0.43992 -0.103571,0.15179 -0.190066,0.30866 -0.25913,0.47061 -0.06909,0.16194 -0.120749,0.32915 -0.155344,0.50127 -0.03448,0.17212 -0.05153,0.34902 -0.05153,0.53131 0,0.19131 0.01591,0.375 0.04825,0.55088 0.03246,0.17588 0.08134,0.3441 0.146212,0.50455 0.06492,0.16043 0.145479,0.3132 0.242798,0.45818 0.09726,0.145 0.210957,0.28231 0.340712,0.41186 0.131851,0.12805 0.275145,0.24934 0.429479,0.36422 0.154346,0.11481 0.31987,0.22336 0.496712,0.32505 0.176841,0.10168 0.365252,0.19672 0.564589,0.28522 0.199349,0.0885 0.40999,0.17076 0.631822,0.24607 0.223928,0.0738 0.460841,0.14545 0.711445,0.21475 0.250617,0.0693 0.514445,0.13625 0.791738,0.20103 0.554598,0.12955 1.162978,0.25012 1.824317,0.3616 0.493896,0.0813 0.937406,0.16009 1.330856,0.23693 0.39345,0.0768 0.73632,0.15156 1.02932,0.22387 0.14859,0.0361 0.29045,0.0763 0.42491,0.12075 0.13447,0.0445 0.26215,0.0928 0.38248,0.14555 0.12037,0.0528 0.2332,0.11001 0.33941,0.17101 0.10623,0.061 0.20555,0.12581 0.29763,0.19516 0.0942,0.0678 0.17675,0.14097 0.24738,0.21931 0.0706,0.0783 0.12914,0.16176 0.17623,0.25064 0.0471,0.0889 0.0822,0.18319 0.10571,0.28262 0.0235,0.0994 0.0359,0.20397 0.0359,0.31395 0,0.0693 -0.005,0.13717 -0.0163,0.20364 -0.0114,0.0664 -0.0273,0.13151 -0.0489,0.19516 -0.0217,0.0637 -0.049,0.12651 -0.0816,0.18734 -0.0326,0.0607 -0.0707,0.12011 -0.11418,0.17818 -0.0869,0.11594 -0.19542,0.22622 -0.32571,0.33092 -0.13027,0.10471 -0.28188,0.20358 -0.45559,0.29698 -0.17161,0.0919 -0.35637,0.17259 -0.55414,0.2415 -0.19777,0.069 -0.40855,0.12637 -0.63248,0.17232 -0.22393,0.046 -0.46136,0.0802 -0.71144,0.10319 -0.25009,0.023 -0.51287,0.0346 -0.78913,0.0346 -0.2009,0 -0.39218,-0.006 -0.573714,-0.0169 -0.181552,-0.0114 -0.353455,-0.0283 -0.515645,-0.0509 -0.16219,-0.0226 -0.314705,-0.0509 -0.457545,-0.0849 -0.142839,-0.0339 -0.275979,-0.0736 -0.399456,-0.11872 -0.123527,-0.0467 -0.239982,-0.0961 -0.349855,-0.14882 -0.109887,-0.0527 -0.213104,-0.10837 -0.309375,-0.16709 -0.09624,-0.0587 -0.185594,-0.12062 -0.268262,-0.18536 -0.08273,-0.0648 -0.158729,-0.13285 -0.227793,-0.20365 -0.133948,-0.14161 -0.26345,-0.30022 -0.389011,-0.47648 -0.125548,-0.17626 -0.247017,-0.37 -0.364217,-0.5809 -0.09624,-0.17777 -0.203277,-0.33392 -0.320477,-0.46799 -0.05861,-0.0671 -0.119612,-0.12861 -0.183409,-0.18473 -0.06378,-0.0561 -0.130664,-0.10685 -0.199728,-0.15207 -0.06694,-0.0452 -0.137308,-0.0842 -0.212131,-0.1181 -0.07477,-0.0339 -0.153614,-0.0623 -0.236282,-0.0849 -0.0826,-0.0226 -0.169263,-0.0397 -0.259774,-0.0509 -0.09056,-0.0114 -0.184912,-0.0169 -0.283279,-0.0169 -0.121381,0 -0.23762,0.008 -0.348543,0.0222 -0.110896,0.0147 -0.216754,0.0365 -0.317218,0.0659 -0.100413,0.0294 -0.195888,0.0662 -0.285881,0.11027 -0.09006,0.0441 -0.174379,0.0952 -0.253901,0.15403 -0.07743,0.0572 -0.145568,0.11759 -0.203644,0.1808 -0.0581,0.0633 -0.106223,0.12977 -0.144898,0.19908 -0.03878,0.0693 -0.06808,0.14137 -0.0874,0.2167 -0.01933,0.0753 -0.02867,0.15361 -0.02867,0.23497 0,0.1401 0.01591,0.28124 0.04825,0.4236 0.03246,0.14236 0.08134,0.28616 0.146212,0.4308 0.06492,0.14462 0.146149,0.29042 0.243456,0.43731 0.09725,0.14688 0.210956,0.29469 0.340711,0.44384 0.131851,0.14762 0.273061,0.28804 0.424263,0.42099 0.151201,0.13295 0.312443,0.25834 0.483007,0.37661 0.170564,0.11822 0.350513,0.2293 0.54044,0.33288 0.189914,0.10357 0.38925,0.19961 0.598527,0.28849 0.295089,0.12353 0.610274,0.23175 0.945112,0.32439 0.334851,0.0927 0.689961,0.16995 1.064572,0.23173 0.374612,0.0618 0.768978,0.10811 1.183351,0.13902 0.414373,0.031 0.848667,0.0464 1.302797,0.0464 0.37881,0 0.74469,-0.0114 1.09786,-0.034 0.35316,-0.0226 0.6933,-0.0566 1.02083,-0.1018 0.32752,-0.0452 0.64257,-0.10193 0.94447,-0.16971 0.30188,-0.0678 0.59054,-0.14654 0.86678,-0.23692 0.27626,-0.0904 0.53592,-0.18927 0.77868,-0.29699 0.24276,-0.10774 0.46889,-0.22417 0.67817,-0.3492 0.20927,-0.12504 0.40184,-0.25905 0.57765,-0.40141 0.17579,-0.14236 0.33481,-0.2933 0.47712,-0.45299 0.1444,-0.15967 0.27091,-0.32424 0.37922,-0.49409 0.10824,-0.16985 0.19867,-0.34474 0.27088,-0.52477 0.0722,-0.18002 0.1258,-0.36526 0.16186,-0.55546 0.0361,-0.19019 0.0542,-0.38576 0.0542,-0.58613 0,-0.16722 -0.0101,-0.32765 -0.0313,-0.4817 -0.021,-0.15403 -0.0522,-0.30167 -0.094,-0.44252 -0.0418,-0.14086 -0.0939,-0.27505 -0.15666,-0.40273 -0.0628,-0.12767 -0.13625,-0.24841 -0.21996,-0.3629 -0.0816,-0.11595 -0.17186,-0.22705 -0.27022,-0.33288 -0.0984,-0.10585 -0.20472,-0.20654 -0.31982,-0.3022 -0.11507,-0.0956 -0.2389,-0.18668 -0.37074,-0.27218 -0.13185,-0.0855 -0.27176,-0.16553 -0.42034,-0.24086 -0.14649,-0.0753 -0.30136,-0.14767 -0.46408,-0.21734 -0.16272,-0.0697 -0.33343,-0.13701 -0.51237,-0.20103 -0.35787,-0.12805 -0.7482,-0.2444 -1.17095,-0.34986 -0.41857,-0.10546 -0.86208,-0.20643 -1.33088,-0.30285 -0.46878,-0.0964 -0.96261,-0.18872 -1.48163,-0.2761 -0.82876,-0.15064 -1.423233,-0.26498 -1.783193,-0.34332 -0.179987,-0.0392 -0.359291,-0.0855 -0.537181,-0.13967 -0.17789,-0.0542 -0.354857,-0.11608 -0.530651,-0.18537 -0.175793,-0.0693 -0.332476,-0.14559 -0.470591,-0.22845 -0.138129,-0.0829 -0.257236,-0.17251 -0.357687,-0.26892 -0.05027,-0.0482 -0.09422,-0.0986 -0.131851,-0.15143 -0.03764,-0.0527 -0.06959,-0.10786 -0.0946,-0.16513 -0.02514,-0.0572 -0.04358,-0.11645 -0.05608,-0.17819 -0.01263,-0.0618 -0.01895,-0.12555 -0.01895,-0.1919 0,-0.10698 0.01819,-0.21033 0.05482,-0.30937 0.03663,-0.099 0.09183,-0.1941 0.165133,-0.28524 0.07326,-0.0912 0.164918,-0.1785 0.274792,-0.26173 0.109887,-0.0832 0.237948,-0.16227 0.384438,-0.23759 0.1486,-0.0768 0.308781,-0.14406 0.480394,-0.20168 0.171612,-0.0576 0.354301,-0.10585 0.548927,-0.14426 0.194638,-0.0384 0.401111,-0.0669 0.618762,-0.0861 0.217663,-0.0192 0.446628,-0.0287 0.687308,-0.0287 0.2595,0 0.50122,0.009 0.72515,0.0262 0.22392,0.0177 0.43041,0.0442 0.61877,0.0797 0.18835,0.0354 0.35829,0.0801 0.51106,0.13315 0.15278,0.053 0.28813,0.11519 0.40533,0.18602 0.11721,0.0693 0.22993,0.14522 0.33875,0.22844 0.10888,0.0832 0.2135,0.17371 0.31396,0.27088 0.10042,0.0971 0.19707,0.20089 0.28914,0.31198 0.0921,0.11115 0.17999,0.22939 0.26371,0.35443 0.12975,0.17475 0.25405,0.32513 0.37334,0.45167 0.11924,0.12655 0.23319,0.22909 0.34202,0.30742 0.0565,0.0376 0.11961,0.071 0.18862,0.0991 0.0691,0.0283 0.14422,0.0517 0.22585,0.0705 0.16324,0.0376 0.35178,0.0561 0.56523,0.0561 0.11722,0 0.22955,-0.008 0.3368,-0.0235 0.10723,-0.0158 0.20947,-0.0395 0.30677,-0.0711 0.0973,-0.0316 0.18937,-0.0714 0.27675,-0.11886 0.0874,-0.0475 0.16995,-0.10256 0.24737,-0.16579 0.0796,-0.0648 0.14923,-0.13182 0.20887,-0.20037 0.0596,-0.0686 0.10901,-0.13852 0.14882,-0.21083 0.0398,-0.0724 0.0696,-0.14649 0.0894,-0.22256 0.0198,-0.076 0.0301,-0.15449 0.0301,-0.23433 0,-0.0874 -0.008,-0.17518 -0.0235,-0.2637 -0.0157,-0.0885 -0.0392,-0.17732 -0.0705,-0.26695 -0.0314,-0.0897 -0.0711,-0.18011 -0.11809,-0.27087 -0.0471,-0.0908 -0.10168,-0.18224 -0.16448,-0.27414 -0.0628,-0.0919 -0.13496,-0.18254 -0.21605,-0.27218 -0.0811,-0.0897 -0.17147,-0.17828 -0.27087,-0.26564 -0.0994,-0.0874 -0.20733,-0.17336 -0.32505,-0.25848 -0.11772,-0.0851 -0.24515,-0.16908 -0.38118,-0.25194 -0.13603,-0.0844 -0.28088,-0.1645 -0.4347,-0.2402 -0.15383,-0.0756 -0.31662,-0.14706 -0.48822,-0.21409 -0.17161,-0.0671 -0.3517,-0.1296 -0.5411,-0.18798 -0.18939,-0.0584 -0.38807,-0.11216 -0.59527,-0.16187 -0.20509,-0.0512 -0.41976,-0.096 -0.64422,-0.13445 -0.22445,-0.0384 -0.45849,-0.071 -0.70232,-0.0966 -0.2438,-0.0256 -0.49723,-0.0446 -0.7604,-0.0575 -0.26317,-0.0128 -0.53595,-0.0189 -0.81849,-0.0189 z"
       style="font-size:17.2744px;line-height:0;-inkscape-font-specification:'sans-serif, Normal';opacity:1;fill:#ffcc00;fill-rule:evenodd;stroke-width:0.265116"
       id="path39" /><path
       d="m 68.720002,113.99792 c -0.08273,0.0599 -0.16709,0.11595 -0.246727,0.18211 -0.138798,0.11532 -0.273427,0.2401 -0.402715,0.37465 -0.129299,0.13456 -0.253572,0.27898 -0.373348,0.43275 -0.119739,0.15215 -0.231987,0.31146 -0.336796,0.47778 -0.104834,0.16632 -0.201926,0.33972 -0.291767,0.52021 -0.01263,0.0253 -0.02223,0.0534 -0.03461,0.0789 0.07086,0.0538 0.144393,0.10269 0.212775,0.16122 0.143358,0.12277 0.281449,0.25596 0.413817,0.39945 0.132369,0.14349 0.259143,0.29725 0.380523,0.46146 0.146503,0.19886 0.285238,0.36836 0.417076,0.50846 0.131851,0.1401 0.256806,0.25088 0.374006,0.33222 0.06075,0.0407 0.128302,0.0759 0.203643,0.10635 0.07528,0.0306 0.158035,0.0561 0.248028,0.0764 0.09006,0.0203 0.18778,0.0355 0.292412,0.0457 0.104708,0.0101 0.216198,0.0157 0.335494,0.0157 0.106729,0 0.209846,-0.008 0.308731,-0.0222 0.0989,-0.0147 0.193539,-0.0365 0.28458,-0.0659 0.09107,-0.0294 0.178547,-0.0662 0.261732,-0.11026 0.08324,-0.0441 0.162241,-0.0952 0.237582,-0.15405 0.07528,-0.0587 0.141274,-0.12011 0.197771,-0.18341 0.05646,-0.0633 0.103318,-0.12868 0.140983,-0.19646 0.03764,-0.0678 0.06606,-0.13787 0.08488,-0.21018 0.01882,-0.0724 0.02867,-0.14704 0.02867,-0.22388 0,-0.1401 -0.01932,-0.28196 -0.0581,-0.4262 -0.03878,-0.14426 -0.09688,-0.29089 -0.174277,-0.43928 -0.07743,-0.14839 -0.174303,-0.29849 -0.290454,-0.45102 -0.116202,-0.15253 -0.251766,-0.3074 -0.40663,-0.46407 -0.154877,-0.15818 -0.326767,-0.30957 -0.515646,-0.45493 -0.188866,-0.14538 -0.394568,-0.28452 -0.617448,-0.41709 -0.208734,-0.12416 -0.435706,-0.2415 -0.674248,-0.35442 z"
       style="font-size:17.2744px;line-height:0;-inkscape-font-specification:'sans-serif, Normal';opacity:1;fill:#d4aa00;fill-rule:evenodd;stroke-width:0.265116"
       id="path35" /><path
       d="m 66.980537,123.68669 c 0.03385,0.0747 0.06366,0.15354 0.09991,0.22584 0.08905,0.17805 0.185051,0.34888 0.287839,0.51237 0.102813,0.16349 0.212422,0.31972 0.328965,0.46865 0.11658,0.14568 0.239438,0.28316 0.368119,0.41186 0.128694,0.12868 0.263197,0.24859 0.404029,0.36028 0.04421,0.0351 0.09296,0.0638 0.138368,0.0973 0.01453,-0.006 0.03132,-0.0126 0.04572,-0.0196 0.197771,-0.0956 0.38435,-0.19692 0.560674,-0.3035 0.176311,-0.1066 0.341835,-0.21864 0.496712,-0.33614 0.154864,-0.11898 0.299447,-0.23792 0.433394,-0.35768 0.133936,-0.11974 0.257716,-0.24043 0.370735,-0.36095 0.113044,-0.1205 0.215339,-0.24098 0.307429,-0.36226 0.09208,-0.12125 0.173608,-0.24284 0.244756,-0.36486 0.07326,-0.12353 0.137611,-0.2452 0.192554,-0.3642 0.05494,-0.11898 0.100414,-0.23536 0.137068,-0.34986 0.03663,-0.11443 0.06391,-0.22682 0.08223,-0.3368 0.01832,-0.11001 0.02804,-0.21763 0.02804,-0.32309 0,-0.0828 -0.0101,-0.16281 -0.03006,-0.23888 -0.01983,-0.076 -0.04964,-0.14871 -0.08943,-0.218 -0.03979,-0.0694 -0.0898,-0.13525 -0.14947,-0.19777 -0.05962,-0.0625 -0.129338,-0.12113 -0.20886,-0.17688 -0.07957,-0.0557 -0.162607,-0.10446 -0.249986,-0.14622 -0.0874,-0.0418 -0.178913,-0.0772 -0.274135,-0.10508 -0.09524,-0.0279 -0.193918,-0.0488 -0.296984,-0.0626 -0.103066,-0.0139 -0.210211,-0.0208 -0.321134,-0.0208 -0.129754,0 -0.250932,0.006 -0.362903,0.0208 -0.111907,0.0139 -0.214556,0.0347 -0.30873,0.0626 -0.09422,0.0279 -0.179469,0.0633 -0.255859,0.10508 -0.07641,0.0418 -0.144393,0.0904 -0.202987,0.14622 -0.117212,0.10849 -0.224736,0.23303 -0.323091,0.37465 -0.09839,0.1416 -0.187438,0.29976 -0.266961,0.47452 -0.09422,0.18529 -0.200019,0.35973 -0.317218,0.5228 -0.117212,0.16309 -0.245527,0.31539 -0.385739,0.45625 -0.140226,0.14085 -0.292349,0.27038 -0.4556,0.38901 -0.0088,0.006 -0.01882,0.0114 -0.02741,0.0169 z"
       style="font-size:17.2744px;line-height:0;-inkscape-font-specification:'sans-serif, Normal';opacity:1;fill:#d4aa00;fill-rule:evenodd;stroke-width:0.265116"
       id="path34" /><path
       d="m 62.796023,126.65323 c -0.103066,-0.14735 -0.212321,-0.2904 -0.306772,-0.44384 -0.172383,-0.28002 -0.33086,-0.56978 -0.47452,-0.87005 -0.143661,-0.30026 -0.272784,-0.61091 -0.38771,-0.93142 -0.024,-0.0668 -0.03991,-0.13916 -0.06265,-0.2069 -0.128112,-0.0463 -0.25793,-0.0899 -0.379222,-0.14555 -0.184167,-0.0844 -0.358277,-0.17941 -0.521515,-0.28523 -0.163238,-0.10584 -0.315892,-0.22256 -0.4582,-0.34985 -0.142312,-0.1273 -0.274156,-0.26506 -0.395539,-0.41382 -0.121381,-0.14877 -0.232425,-0.3082 -0.33288,-0.47844 -0.100452,-0.17174 -0.188352,-0.35441 -0.263694,-0.54761 -0.07534,-0.19321 -0.137752,-0.39692 -0.187979,-0.61159 -0.05023,-0.21467 -0.08781,-0.44006 -0.112918,-0.6762 -0.02511,-0.23615 -0.03785,-0.48321 -0.03785,-0.74083 0,-0.19282 0.0068,-0.38016 0.02089,-0.56197 0.01412,-0.18182 0.03571,-0.35789 0.06396,-0.5287 0.02825,-0.17079 0.06335,-0.33627 0.105743,-0.49605 0.04238,-0.15978 0.09166,-0.314 0.148164,-0.46277 0.05651,-0.14877 0.119953,-0.29238 0.19059,-0.43013 0.07063,-0.13775 0.14891,-0.26946 0.233669,-0.3962 0.08476,-0.12673 0.176556,-0.24849 0.275441,-0.3642 0.09888,-0.1157 0.204856,-0.22557 0.317869,-0.33028 0.114054,-0.10471 0.232641,-0.20274 0.35637,-0.29437 0.123781,-0.0916 0.252335,-0.17667 0.385761,-0.2552 0.133405,-0.0786 0.272013,-0.15061 0.415118,-0.21605 0.09801,-0.0448 0.200941,-0.0827 0.303502,-0.12138 0.06732,-0.18516 0.136423,-0.36919 0.212788,-0.54892 0.09208,-0.21671 0.190457,-0.42953 0.29567,-0.63834 0.105213,-0.20881 0.21659,-0.41146 0.333537,-0.60833 0.11696,-0.19688 0.239439,-0.38814 0.36812,-0.57308 0.02513,-0.0361 0.0533,-0.0693 0.07894,-0.10509 -0.0038,2.6e-4 -0.0076,4.1e-4 -0.01137,6.6e-4 -0.296656,0.0196 -0.588815,0.0489 -0.876578,0.0882 -0.287764,0.0392 -0.571612,0.0882 -0.850484,0.14687 -0.278859,0.0587 -0.553091,0.12727 -0.823058,0.2056 -0.269972,0.0783 -0.531191,0.16533 -0.783898,0.26174 -0.252708,0.0964 -0.496896,0.20206 -0.732337,0.31656 -0.235441,0.11456 -0.461944,0.23816 -0.680119,0.37073 -0.218175,0.13257 -0.427646,0.27426 -0.628555,0.42492 -0.200911,0.14913 -0.390619,0.30602 -0.568507,0.47059 -0.177889,0.16459 -0.344451,0.33692 -0.499321,0.51695 -0.154867,0.18002 -0.298284,0.36782 -0.430132,0.56329 -0.131847,0.19546 -0.25212,0.39806 -0.360946,0.60897 -0.106729,0.21091 -0.199961,0.42916 -0.280011,0.65401 -0.08005,0.22484 -0.147015,0.45636 -0.20038,0.69513 -0.05336,0.23878 -0.09276,0.48485 -0.119448,0.73755 -0.02669,0.25272 -0.04047,0.51204 -0.04047,0.77868 0,0.32842 0.0208,0.64784 0.06266,0.95817 0.02093,0.15517 0.04758,0.30822 0.07898,0.45886 0.03139,0.15065 0.0678,0.29902 0.109659,0.44514 0.04396,0.14614 0.0931,0.29012 0.147511,0.4321 0.05441,0.14198 0.113966,0.28185 0.178842,0.41969 0.06488,0.13783 0.134829,0.27359 0.210171,0.40728 0.07534,0.13371 0.156348,0.26534 0.242153,0.39489 0.171611,0.25611 0.360667,0.50034 0.567854,0.73233 0.207189,0.232 0.432132,0.452 0.674899,0.65989 0.136032,0.11444 0.27542,0.22344 0.417731,0.32701 0.142311,0.10357 0.287418,0.20172 0.436007,0.29437 0.148591,0.0927 0.300721,0.18001 0.455589,0.26173 0.154868,0.0817 0.312718,0.15764 0.473865,0.22845 0.163239,0.0693 0.331102,0.13425 0.503236,0.19451 0.172134,0.0602 0.348316,0.11582 0.529344,0.16709 0.362055,0.10244 0.741993,0.18696 1.139617,0.25325 0.397638,0.0663 0.817492,0.11632 1.259072,0.14947 0.06795,0.005 0.145075,0.004 0.214089,0.008 z"
       style="font-size:17.2744px;line-height:0;-inkscape-font-specification:'sans-serif, Normal';opacity:1;fill:#ffcc00;fill-rule:evenodd;stroke-width:0.265116"
       id="path32" /><path
       d="m 42.521122,113.17606 c -0.138124,0 -0.26984,0.009 -0.394886,0.0255 -0.125043,0.0169 -0.24376,0.0418 -0.355724,0.0758 -0.111971,0.0339 -0.217025,0.0764 -0.31591,0.12727 -0.09888,0.0509 -0.191595,0.11039 -0.2774,0.17819 -0.08372,0.0678 -0.156525,0.14371 -0.219309,0.22845 -0.06279,0.0847 -0.115444,0.17832 -0.157302,0.28001 -0.04186,0.10167 -0.07307,0.21164 -0.09399,0.33026 -0.02093,0.11861 -0.03134,0.24561 -0.03134,0.38118 v 10.20506 c 0,0.14462 0.01061,0.27936 0.03264,0.40403 0.02198,0.12466 0.05526,0.23927 0.09921,0.34398 0.04396,0.10471 0.09856,0.19918 0.164482,0.28392 0.06592,0.0847 0.14316,0.15975 0.231059,0.22452 0.08999,0.0648 0.193748,0.12176 0.311993,0.17037 0.118248,0.0486 0.251,0.089 0.397497,0.12138 0.146497,0.0323 0.306947,0.0562 0.481697,0.0725 0.174749,0.0162 0.363546,0.0247 0.566549,0.0247 h 9.003423 c 0.152775,0 0.296322,-0.006 0.430785,-0.0189 0.134463,-0.0126 0.259808,-0.0313 0.375959,-0.0561 0.116152,-0.0249 0.223292,-0.0561 0.321132,-0.0933 0.09784,-0.0373 0.186123,-0.0802 0.265651,-0.12988 0.07952,-0.0513 0.14922,-0.10635 0.208865,-0.16515 0.05964,-0.0587 0.109709,-0.12163 0.149469,-0.18797 0.03976,-0.0663 0.06955,-0.13636 0.08942,-0.21017 0.01988,-0.0738 0.03002,-0.15101 0.03002,-0.23237 0,-0.0798 -0.01023,-0.15668 -0.03068,-0.22975 -0.02041,-0.0731 -0.05122,-0.14259 -0.09203,-0.20887 -0.04081,-0.0663 -0.09152,-0.12913 -0.152734,-0.18863 -0.06122,-0.0595 -0.13312,-0.11569 -0.214741,-0.1684 -0.07952,-0.0527 -0.167682,-0.0988 -0.264998,-0.13837 -0.09732,-0.0395 -0.203416,-0.0722 -0.31852,-0.0985 -0.115103,-0.0264 -0.239148,-0.0462 -0.372043,-0.0594 -0.132893,-0.0131 -0.274881,-0.0196 -0.425563,-0.0196 h -7.558986 v -9.64504 c 0,-0.13708 -0.01137,-0.26505 -0.03329,-0.38444 -0.02198,-0.11936 -0.0546,-0.22989 -0.09856,-0.33158 -0.04396,-0.10167 -0.09921,-0.19471 -0.165134,-0.2787 -0.06592,-0.084 -0.142508,-0.1589 -0.230406,-0.22518 -0.08581,-0.0678 -0.178643,-0.12734 -0.278053,-0.1782 -0.0994,-0.0509 -0.205508,-0.0933 -0.31852,-0.12726 -0.113006,-0.0339 -0.233025,-0.0587 -0.359641,-0.0758 -0.126614,-0.0169 -0.25989,-0.0255 -0.400109,-0.0255 z"
       style="font-size:17.2744px;line-height:0;-inkscape-font-specification:'sans-serif, Normal';opacity:1;fill:#00aa88;fill-rule:evenodd;stroke-width:0.265116"
       id="path31" /><path
       style="opacity:0.29;fill:#000000;fill-rule:evenodd;stroke-width:1.002"
       d=""
       id="path2"
       transform="scale(0.26458333)" /><path
       style="opacity:0.29;fill:#000000;fill-rule:evenodd;stroke-width:1.002"
       d=""
       id="path3"
       transform="scale(0.26458333)" /><path
       style="opacity:0.29;fill:#000000;fill-rule:evenodd;stroke-width:1.002"
       d=""
       id="path4"
       transform="scale(0.26458333)" /><path
       d="m 91.661928,15.119515 c -0.38286,0.01023 -0.76236,0.04163 -1.13766,0.09334 -0.375308,0.05171 -0.746068,0.124007 -1.110903,0.215392 -0.364836,0.09139 -0.724228,0.202353 -1.075663,0.331576 -0.351434,0.129221 -0.695505,0.276672 -1.030621,0.441881 -0.335116,0.16521 -0.661238,0.347618 -0.977105,0.546969 -0.315854,0.199349 -0.621402,0.415839 -0.915089,0.647483 -0.293687,0.231644 -0.575363,0.47873 -0.843953,0.740821 -0.268578,0.262092 -0.523767,0.538898 -0.764317,0.829589 -0.240551,0.290692 -0.466601,0.595038 -0.676206,0.912482 -0.209593,0.317446 -0.402576,0.647803 -0.578294,0.990156 -0.175717,0.342352 -0.33365,0.697191 -0.472562,1.062604 -0.138899,0.365413 -0.259155,0.741902 -0.358331,1.128529 -0.09915,0.386626 -0.177801,0.783235 -0.234323,1.189229 -0.07288,0.523599 -0.109381,1.042037 -0.111655,1.552788 -0.0025,0.51075 0.03031,1.013919 0.09662,1.507097 0.06631,0.493179 0.166169,0.976165 0.29893,1.447049 0.132773,0.470883 0.298284,0.929428 0.495411,1.373292 0.197126,0.443865 0.425955,0.873056 0.685337,1.285178 0.259383,0.412122 0.549205,0.807045 0.868748,1.182703 0.319554,0.375658 0.668678,0.732052 1.046295,1.066521 0.377606,0.334469 0.783718,0.647422 1.21729,0.93598 0.297603,0.198064 0.572256,0.368059 0.841995,0.517596 0.26974,0.149536 0.53468,0.278439 0.81196,0.394235 0.27728,0.115797 0.566812,0.218418 0.887036,0.315256 0.320212,0.09684 0.671217,0.187996 1.069777,0.280663 0.38224,0.08887 0.718053,0.157553 1.029983,0.207561 0.31191,0.05 0.59951,0.0814 0.88636,0.09464 0.28686,0.01324 0.57282,0.0083 0.87985,-0.01306 0.30704,-0.02145 0.63532,-0.05953 1.00778,-0.113575 0.26683,-0.03871 0.5429,-0.09511 0.82372,-0.16644 0.28081,-0.07134 0.56658,-0.157873 0.85374,-0.257819 0.57432,-0.199891 1.15367,-0.453156 1.70747,-0.743431 0.55381,-0.290276 1.08199,-0.617417 1.5541,-0.966004 0.23605,-0.174295 0.45834,-0.353665 0.6625,-0.536525 0.20415,-0.18286 0.39018,-0.369341 0.5548,-0.556758 0.498832,-0.567948 0.917442,-1.085359 1.211412,-1.490779 0.147,-0.202712 0.26296,-0.37726 0.34202,-0.516291 0.0791,-0.139032 0.12138,-0.242214 0.12138,-0.302203 0,-0.132091 0.0776,-0.318181 0.17232,-0.413163 0.10433,-0.104619 0.21243,-0.305449 0.31786,-0.573729 0.10546,-0.268278 0.20839,-0.603923 0.3009,-0.979058 0.0924,-0.375134 0.17463,-0.789491 0.24019,-1.214684 0.0656,-0.425194 0.11444,-0.861501 0.13903,-1.279957 0.0402,-0.682098 0.0489,-1.191048 0.0189,-1.640249 -0.0299,-0.449202 -0.0984,-0.838391 -0.21344,-1.28061 -0.12112,-0.465253 -0.26889,-0.917264 -0.44123,-1.354364 -0.17234,-0.437099 -0.3697,-0.859478 -0.59004,-1.264943 -0.22035,-0.405466 -0.46395,-0.794075 -0.72908,-1.164427 -0.26513,-0.370353 -0.551612,-0.722362 -0.858302,-1.05412 -0.30671,-0.331758 -0.63335,-0.643685 -0.97841,-0.93337 -0.34506,-0.289684 -0.70853,-0.55739 -1.08872,-0.801521 -0.38018,-0.244132 -0.77711,-0.464136 -1.18923,-0.659234 -0.41211,-0.195098 -0.83914,-0.365221 -1.27995,-0.507806 -0.38795,-0.125485 -0.77721,-0.227051 -1.16638,-0.305466 -0.38918,-0.07841 -0.77827,-0.133246 -1.16573,-0.16644 -0.38749,-0.03319 -0.77374,-0.04478 -1.1566,-0.0346 z"
       style="opacity:1;fill:url(#linearGradient45);fill-opacity:1;fill-rule:evenodd;stroke:none;stroke-width:0.265112"
       id="path12" /><path
       d="m 82.362835,93.918069 c 0.466348,-0.148966 0.946084,-0.288863 1.385037,-0.441883 0.885962,-0.308857 1.687173,-0.615869 2.289048,-0.88115 0.300925,-0.132647 0.552198,-0.254937 0.738854,-0.361602 0.186655,-0.106729 0.209327,-0.151139 0.35247,-0.268262 0.04989,-0.04092 0.167242,-0.157403 0.35506,-0.277394 0.18783,-0.119991 0.430338,-0.257993 0.681435,-0.385108 0.374889,-0.189775 0.89229,-0.492077 1.479678,-0.857645 0.587387,-0.365581 1.244581,-0.793948 1.898071,-1.236235 0.65348,-0.442274 1.30334,-0.898543 1.87653,-1.318461 0.57319,-0.419918 1.06988,-0.803952 1.41637,-1.102413 0.58088,-0.500388 1.14115,-1.004779 1.68268,-1.515587 0.54151,-0.510821 1.06373,-1.02759 1.56844,-1.55214 0.50472,-0.52455 0.9922,-1.05688 1.46272,-1.598469 0.470522,-0.541589 0.924632,-1.092676 1.363502,-1.654612 0.43888,-0.561937 0.86231,-1.134963 1.27212,-1.720532 0.40983,-0.585581 0.80588,-1.183729 1.18924,-1.796252 0.38334,-0.612509 0.75406,-1.239633 1.11351,-1.882393 0.35945,-0.642772 0.70751,-1.301384 1.04564,-1.977703 0.44876,-0.897608 0.78889,-1.626484 1.15921,-2.52466 0.37032,-0.898189 0.77076,-1.965629 1.34131,-3.540277 0.16142,-0.44552 0.5038,-1.848492 0.83089,-3.322271 0.32711,-1.473792 0.63881,-3.018139 0.73821,-3.747848 0.10963,-0.805203 0.19753,-1.574206 0.26305,-2.321017 0.0656,-0.746811 0.109,-1.471354 0.13119,-2.189178 0.0222,-0.717811 0.0227,-1.428524 0.003,-2.14674 -0.0201,-0.718227 -0.0611,-1.444425 -0.12265,-2.192449 -0.12791,-1.553239 -0.21487,-2.48836 -0.3146,-3.174102 -0.0499,-0.342871 -0.10281,-0.623498 -0.16579,-0.88768 -0.0629,-0.264182 -0.13582,-0.51216 -0.22518,-0.789781 -0.13457,-0.41801 -0.28876,-0.821433 -0.46081,-1.210759 -0.17205,-0.389326 -0.36194,-0.763964 -0.56851,-1.123305 -0.20656,-0.359354 -0.4296,-0.703854 -0.66772,-1.031935 -0.2381,-0.32808 -0.49111,-0.639804 -0.75778,-0.935323 -0.26668,-0.295519 -0.54713,-0.574451 -0.83939,-0.836118 -0.29226,-0.261668 -0.59629,-0.506463 -0.91117,-0.732988 -0.31489,-0.226527 -0.64063,-0.435199 -0.97515,-0.625294 -0.33452,-0.190093 -0.67813,-0.361307 -1.02932,-0.513678 -0.35118,-0.152371 -0.71012,-0.285446 -1.07501,-0.398804 -0.36487,-0.113359 -0.7353,-0.206957 -1.1109,-0.28001 -0.3756,-0.07306 -0.75628,-0.125839 -1.139622,-0.157302 -0.38334,-0.03146 -0.76979,-0.0421 -1.1579,-0.03068 -0.38812,0.01137 -0.77778,0.04491 -1.16769,0.100514 -0.38991,0.0556 -0.77961,0.133905 -1.16835,0.234974 -0.38873,0.101071 -0.77659,0.22487 -1.16116,0.372695 -0.38457,0.147825 -0.76609,0.319111 -1.14353,0.514985 -0.37861,0.196475 -0.78147,0.45562 -1.18598,0.755833 -0.4045,0.300213 -0.81065,0.641781 -1.19576,1.003209 -0.38509,0.361435 -0.74938,0.742539 -1.06977,1.122658 -0.320404,0.380119 -0.597028,0.759189 -0.807403,1.115474 -0.310398,0.525686 -0.556341,0.975248 -0.755185,1.418987 -0.198832,0.443727 -0.350563,0.881416 -0.471906,1.38438 -0.12138,0.502965 -0.212548,1.071343 -0.290454,1.774717 -0.07793,0.703374 -0.142296,1.542364 -0.210818,2.587321 -0.137585,2.097808 -0.255757,3.558654 -0.402727,4.792161 -0.07351,0.616766 -0.153917,1.176871 -0.248028,1.730977 -0.0941,0.554105 -0.202039,1.101997 -0.328964,1.695737 -0.219672,1.027603 -0.473371,2.04092 -0.760402,3.038992 -0.287018,0.998072 -0.607116,1.980962 -0.96013,2.946965 -0.353001,0.966016 -0.738311,1.9157 -1.155942,2.847108 -0.417619,0.931395 -0.867611,1.844488 -1.348484,2.738749 -0.480873,0.894261 -0.993058,1.769311 -1.535821,2.623874 -0.542751,0.854576 -1.115954,1.688829 -1.71923,2.501167 -0.603277,0.812352 -1.236286,1.603067 -1.898712,2.37063 -0.662426,0.767576 -1.354092,1.512 -2.074303,2.232261 -0.63148,0.631519 -1.306537,1.267762 -1.972474,1.866731 -0.665937,0.598983 -1.323185,1.160641 -1.92026,1.64351 -0.597075,0.482882 -1.133763,0.8871 -1.558669,1.170304 -0.212448,0.141614 -0.396931,0.25294 -0.546957,0.328964 -0.134188,0.06795 -0.229688,0.09688 -0.304171,0.104455 0.825146,0.788379 1.681604,1.550347 2.567743,2.284477 1.834473,1.414011 3.780132,2.709673 5.822138,3.877072 1.570114,0.864415 3.191874,1.6523 4.858093,2.360184 z"
       style="opacity:1;fill:url(#linearGradient40);fill-opacity:1;fill-rule:evenodd;stroke:none;stroke-width:0.265112"
       id="path11"
       sodipodi:nodetypes="ssscsssssssssssssssssscssccscsssssssssssscssssssssssssssssssssssssssscccss" /><path
       d="m 66.980537,123.68669 c -0.155824,0.11128 -0.320211,0.2141 -0.496712,0.30547 -0.184167,0.0949 -0.378413,0.17814 -0.583509,0.24933 -0.205096,0.0712 -0.420815,0.13008 -0.64684,0.17754 -0.226025,0.0475 -0.462546,0.0834 -0.709488,0.10698 -0.246954,0.0237 -0.504277,0.0359 -0.77216,0.0359 -0.246954,0 -0.486077,-0.0114 -0.717332,-0.032 -0.231254,-0.0211 -0.454765,-0.0524 -0.670332,-0.0946 -0.215554,-0.0422 -0.423467,-0.0954 -0.623334,-0.1586 -0.06821,-0.0216 -0.130058,-0.0517 -0.196466,-0.0758 0.02274,0.0677 0.03865,0.14005 0.06265,0.20691 0.114939,0.3205 0.244049,0.63115 0.38771,0.93142 0.143661,0.30026 0.302137,0.59002 0.47452,0.87004 0.09448,0.15344 0.203694,0.29649 0.306772,0.44384 0.379349,0.0237 0.766035,0.0418 1.176834,0.0418 0.320212,0 0.630445,-0.0101 0.930763,-0.028 0.300331,-0.0184 0.59028,-0.046 0.870718,-0.0829 0.280438,-0.0369 0.551415,-0.083 0.81196,-0.13838 0.260557,-0.0553 0.510593,-0.11999 0.751269,-0.19385 0.240677,-0.0738 0.470693,-0.15284 0.689911,-0.23758 0.203239,-0.0786 0.395452,-0.16334 0.580251,-0.25129 -0.04547,-0.0335 -0.0941,-0.0621 -0.138369,-0.0973 -0.140831,-0.11165 -0.275335,-0.2316 -0.404028,-0.36028 -0.128681,-0.1287 -0.251577,-0.26618 -0.36812,-0.41186 -0.116581,-0.14893 -0.226177,-0.30516 -0.328965,-0.46865 -0.102813,-0.16349 -0.198818,-0.33432 -0.287839,-0.51237 -0.03612,-0.0722 -0.06593,-0.15114 -0.09991,-0.22584 z"
       style="font-size:31.4955px;line-height:0;font-family:'Arial Rounded MT Bold';-inkscape-font-specification:'Arial Rounded MT Bold, Normal';opacity:1;fill:#d4aa00;fill-rule:evenodd;stroke-width:0.265112"
       id="path38" /><path
       d="m 68.720002,113.99792 c -0.01617,-0.008 -0.02943,-0.0165 -0.04572,-0.0241 -0.256881,-0.11974 -0.530852,-0.2331 -0.821748,-0.34005 -0.290909,-0.10699 -0.592048,-0.20045 -0.903343,-0.28067 -0.311307,-0.0802 -0.63234,-0.14755 -0.964058,-0.20104 -0.331705,-0.0534 -0.673932,-0.0933 -1.026049,-0.12012 -0.352116,-0.0268 -0.714236,-0.0398 -1.086764,-0.0398 -0.301569,0 -0.598692,0.0101 -0.891596,0.0287 -0.02564,0.0357 -0.05381,0.0688 -0.07894,0.10508 -0.128694,0.18494 -0.251186,0.37621 -0.368133,0.57308 -0.116959,0.19687 -0.228311,0.39952 -0.333537,0.60833 -0.105213,0.20881 -0.203605,0.42164 -0.29567,0.63834 -0.07642,0.17973 -0.14548,0.36376 -0.212788,0.54893 0.04711,-0.0178 0.09157,-0.039 0.139682,-0.0555 0.15278,-0.0523 0.310751,-0.0978 0.473219,-0.13707 0.162455,-0.0393 0.329798,-0.0724 0.501928,-0.0985 0.172143,-0.0261 0.348846,-0.0456 0.530651,-0.0587 0.181818,-0.0131 0.368536,-0.0196 0.560029,-0.0196 0.240677,0 0.471855,0.0101 0.693182,0.0307 0.221314,0.0203 0.433129,0.0507 0.63508,0.0914 0.201964,0.0407 0.393748,0.0917 0.576336,0.15273 0.182601,0.061 0.355666,0.13209 0.518904,0.21343 0.165335,0.0813 0.32539,0.17272 0.479736,0.27479 0.08071,0.0534 0.155963,0.11722 0.23368,0.17624 0.01263,-0.0256 0.02198,-0.0537 0.03461,-0.0789 0.0898,-0.18049 0.186958,-0.35389 0.291767,-0.52021 0.104834,-0.16632 0.217007,-0.32563 0.336796,-0.47778 0.119738,-0.15377 0.244049,-0.29819 0.373348,-0.43275 0.129287,-0.13455 0.263917,-0.25932 0.402715,-0.37465 0.0797,-0.0662 0.163958,-0.12226 0.246727,-0.18211 z"
       style="font-size:31.4955px;line-height:0;font-family:'Arial Rounded MT Bold';-inkscape-font-specification:'Arial Rounded MT Bold, Normal';opacity:1;fill:#d4aa00;fill-rule:evenodd;stroke-width:0.265112"
       id="path37" /><path
       d="m 71.562537,109.06282 c -0.2768,0 -0.5488,0.008 -0.815888,0.0216 -0.267087,0.0144 -0.529135,0.0359 -0.786509,0.0647 -0.257374,0.0288 -0.510138,0.0645 -0.757787,0.10774 -0.247661,0.0431 -0.490472,0.0933 -0.728421,0.15078 -0.237948,0.0575 -0.470819,0.12265 -0.699054,0.1945 -0.228236,0.0719 -0.451798,0.15075 -0.67032,0.23694 -0.218523,0.0861 -0.432157,0.17944 -0.640967,0.28001 -0.208809,0.10054 -0.412478,0.20816 -0.611575,0.32309 -0.199109,0.1133 -0.392244,0.23244 -0.579607,0.35769 -0.187362,0.12529 -0.368738,0.25639 -0.544367,0.39357 -0.175629,0.13719 -0.345865,0.28036 -0.50976,0.42949 -0.163895,0.14912 -0.321714,0.30431 -0.473863,0.46538 -0.152161,0.16105 -0.298209,0.32828 -0.438624,0.50127 -0.112917,0.13914 -0.219709,0.28458 -0.325049,0.43143 0.292904,-0.0191 0.590027,-0.0287 0.891596,-0.0287 0.372528,0 0.734648,0.0131 1.086765,0.0398 0.352116,0.0268 0.694343,0.0666 1.026049,0.12012 0.331718,0.0534 0.65275,0.12087 0.964057,0.20104 0.311295,0.0802 0.612434,0.17369 0.903343,0.28066 0.290896,0.10698 0.564867,0.22029 0.821748,0.34006 0.01629,0.008 0.02956,0.0165 0.04572,0.0241 0.06151,-0.0445 0.120244,-0.0941 0.18341,-0.13511 0.148308,-0.0961 0.301682,-0.18289 0.459502,-0.25977 0.15782,-0.0769 0.320237,-0.14403 0.487567,-0.20169 0.167331,-0.0577 0.339448,-0.10584 0.51629,-0.14425 0.176841,-0.0384 0.358659,-0.0669 0.545011,-0.0861 0.186353,-0.0192 0.377214,-0.0287 0.573077,-0.0287 0.271938,0 0.531674,0.0149 0.779335,0.0457 0.247661,0.0307 0.483501,0.0769 0.706873,0.13837 0.223385,0.0615 0.434683,0.13879 0.63378,0.23105 0.199096,0.0922 0.385853,0.20007 0.560673,0.32309 0.178054,0.12302 0.354037,0.26135 0.528036,0.41513 0.174012,0.15377 0.346332,0.32261 0.516302,0.50715 0.169958,0.18453 0.337314,0.38455 0.50323,0.59984 0.165916,0.21527 0.330278,0.44582 0.49214,0.69186 0.181287,0.25252 0.35247,0.47144 0.514331,0.65598 0.161875,0.18452 0.314453,0.33447 0.456901,0.45101 0.07439,0.0551 0.152906,0.10357 0.236268,0.1449 0.08336,0.0413 0.171436,0.0757 0.263702,0.10307 0.0922,0.0275 0.189283,0.0482 0.290454,0.062 0.101172,0.0138 0.206486,0.0202 0.316562,0.0202 0.168341,0 0.330215,-0.0136 0.485609,-0.0412 0.155395,-0.0275 0.304007,-0.069 0.446455,-0.12403 0.142436,-0.0551 0.278442,-0.12365 0.407944,-0.20626 0.129489,-0.0826 0.252878,-0.17842 0.369421,-0.28849 0.119738,-0.11001 0.224774,-0.22633 0.314603,-0.34854 0.0898,-0.12227 0.164641,-0.25075 0.224535,-0.3851 0.05987,-0.13435 0.104582,-0.2745 0.134453,-0.42099 0.02993,-0.14649 0.04509,-0.29957 0.04509,-0.4582 0,-0.1554 -0.01314,-0.31346 -0.03979,-0.47452 -0.02665,-0.16106 -0.06732,-0.32476 -0.120749,-0.49149 -0.05343,-0.16672 -0.119612,-0.33607 -0.199728,-0.50845 -0.08008,-0.1724 -0.173835,-0.34803 -0.280665,-0.52608 -0.103571,-0.1813 -0.219369,-0.3596 -0.347241,-0.53522 -0.127873,-0.17563 -0.268186,-0.34829 -0.420348,-0.51825 -0.152148,-0.16996 -0.316346,-0.33699 -0.492783,-0.50129 -0.176438,-0.16428 -0.365177,-0.32632 -0.565903,-0.48495 -0.19748,-0.15863 -0.405797,-0.30956 -0.625936,-0.45363 -0.220152,-0.14406 -0.451684,-0.28105 -0.694482,-0.41056 -0.242799,-0.12949 -0.496902,-0.25189 -0.76236,-0.36682 -0.26547,-0.11493 -0.542119,-0.22207 -0.830249,-0.32243 -0.284884,-0.10041 -0.577118,-0.18842 -0.876578,-0.26369 -0.299459,-0.0753 -0.606295,-0.1378 -0.920318,-0.18798 -0.314023,-0.0501 -0.635447,-0.0878 -0.964045,-0.11292 -0.328599,-0.0251 -0.664611,-0.0379 -1.007773,-0.0379 z"
       style="font-size:31.4955px;line-height:0;font-family:'Arial Rounded MT Bold';-inkscape-font-specification:'Arial Rounded MT Bold, Normal';opacity:1;fill:#00aa88;fill-rule:evenodd;stroke-width:0.265112"
       id="path36" /><path
       d="m 68.607728,125.76295 c -0.184798,0.0879 -0.377011,0.17272 -0.580251,0.25129 -0.219217,0.0847 -0.449233,0.16376 -0.68991,0.23758 -0.240676,0.0738 -0.490712,0.13849 -0.751269,0.19385 -0.260545,0.0553 -0.531522,0.10143 -0.81196,0.13838 -0.280438,0.0369 -0.570387,0.0644 -0.870718,0.0829 -0.300318,0.0184 -0.610552,0.028 -0.930763,0.028 -0.410799,0 -0.797485,-0.0181 -1.176834,-0.0418 0.085,0.12164 0.162329,0.24873 0.253257,0.36618 0.201117,0.2598 0.416975,0.50973 0.64684,0.7493 0.229852,0.23795 0.470882,0.46083 0.723191,0.66903 0.252323,0.2082 0.515671,0.40179 0.790438,0.58025 0.274766,0.17846 0.560421,0.34147 0.857657,0.49018 0.297224,0.14872 0.605841,0.28309 0.925535,0.40207 0.319693,0.11898 0.650616,0.22277 0.992767,0.31199 0.342151,0.0893 0.695379,0.16375 1.059987,0.22322 0.364609,0.0595 0.740812,0.10408 1.127878,0.13381 0.387065,0.0298 0.785574,0.0443 1.195109,0.0443 0.385247,0 0.760743,-0.0126 1.126564,-0.0385 0.365821,-0.0259 0.721436,-0.065 1.067831,-0.11683 0.346395,-0.0518 0.683418,-0.1162 1.010387,-0.19386 0.326969,-0.0777 0.644099,-0.16858 0.951642,-0.27217 0.307556,-0.10357 0.601622,-0.21505 0.882464,-0.33484 0.280842,-0.11974 0.548687,-0.24783 0.802828,-0.3838 0.254128,-0.13596 0.494464,-0.27993 0.721891,-0.43208 0.227427,-0.15216 0.441541,-0.31271 0.642267,-0.48105 0.203947,-0.17157 0.394518,-0.34523 0.571763,-0.52086 0.177246,-0.17563 0.341608,-0.35292 0.49214,-0.53261 0.150545,-0.17967 0.287372,-0.36128 0.411203,-0.545 0.12378,-0.18372 0.234462,-0.36964 0.331579,-0.55741 0.100414,-0.18777 0.188424,-0.37271 0.26369,-0.5548 0.07528,-0.18211 0.1378,-0.3614 0.187981,-0.53784 0.05014,-0.17642 0.08778,-0.35008 0.112918,-0.52085 0.02514,-0.17078 0.03789,-0.33879 0.03789,-0.5039 0,-0.1392 -0.01377,-0.27604 -0.04042,-0.4112 -0.02665,-0.13516 -0.06669,-0.26834 -0.120117,-0.39946 -0.05343,-0.1311 -0.120244,-0.26063 -0.200385,-0.38769 -0.08008,-0.12708 -0.173823,-0.25164 -0.280665,-0.37466 -0.106855,-0.12303 -0.220114,-0.23083 -0.340712,-0.3231 -0.120622,-0.0922 -0.248128,-0.16954 -0.38248,-0.23105 -0.134352,-0.0615 -0.275499,-0.10761 -0.423606,-0.13837 -0.148107,-0.0307 -0.303514,-0.0457 -0.465376,-0.0457 -0.135981,0 -0.266177,0.0101 -0.391625,0.0313 -0.125422,0.0211 -0.246019,0.0526 -0.360945,0.0946 -0.114939,0.0421 -0.22456,0.0949 -0.328965,0.15794 -0.104455,0.0632 -0.2031,0.13645 -0.296984,0.22062 -0.09385,0.0841 -0.186756,0.17639 -0.277406,0.27675 -0.09069,0.10042 -0.179545,0.20915 -0.266949,0.3257 -0.0874,0.11658 -0.173001,0.24127 -0.257172,0.374 -0.08412,0.13274 -0.166434,0.27338 -0.247371,0.42231 -0.145681,0.25251 -0.297274,0.48869 -0.454285,0.70883 -0.157012,0.22014 -0.319884,0.42447 -0.488225,0.61224 -0.168341,0.18777 -0.342492,0.35894 -0.522162,0.51433 -0.179671,0.1554 -0.364445,0.29471 -0.555457,0.41774 -0.187767,0.12302 -0.385462,0.23082 -0.592655,0.32309 -0.207193,0.0922 -0.424136,0.16888 -0.650742,0.23039 -0.226619,0.0615 -0.462799,0.10762 -0.708844,0.13838 -0.246044,0.0307 -0.502118,0.0464 -0.767576,0.0464 -0.197479,0 -0.39088,-0.009 -0.580263,-0.028 -0.189384,-0.0186 -0.374814,-0.0464 -0.556101,-0.0836 -0.181288,-0.0373 -0.358104,-0.0839 -0.531308,-0.13968 -0.173191,-0.0558 -0.342694,-0.12075 -0.507801,-0.19515 -0.165108,-0.0777 -0.324166,-0.16443 -0.477122,-0.25912 -0.104961,-0.0649 -0.203012,-0.1392 -0.302213,-0.21213 z"
       style="font-size:31.4955px;line-height:0;font-family:'Arial Rounded MT Bold';-inkscape-font-specification:'Arial Rounded MT Bold, Normal';opacity:1;fill:#00aa88;fill-rule:evenodd;stroke-width:0.265112"
       id="path33" /></g></svg>
